Coordinates
version=1
nRows=6
nColumns=36
inDegrees=yes

Units are S.I. units (second, meters, Newtons, ...)
If the header above contains a line with 'inDegrees', this indicates whether rotational values are in degrees (yes) or radians (no).

endheader
time	pelvis_tilt	pelvis_list	pelvis_rotation	pelvis_tx	pelvis_ty	pelvis_tz	hip_flexion_r	hip_adduction_r	hip_rotation_r	knee_angle_r	knee_angle_r_beta	ankle_angle_r	subtalar_angle_r	mtp_angle_r	hip_flexion_l	hip_adduction_l	hip_rotation_l	knee_angle_l	knee_angle_l_beta	ankle_angle_l	subtalar_angle_l	mtp_angle_l	lumbar_extension	lumbar_bending	lumbar_rotation	arm_flex_r	arm_add_r	arm_rot_r	elbow_flex_r	pro_sup_r	arm_flex_l	arm_add_l	arm_rot_l	elbow_flex_l	pro_sup_l
      5.56666670	     25.23540321	      1.26321090	      7.50984478	      1.61047232	      0.99759618	     -0.06997964	      1.74259453	     -3.49841431	     -0.85160960	      0.53525003	      0.00934188	      0.16224174	     16.93503021	     -7.49999987	    -23.18392313	      2.22184505	     -2.72849663	     14.82522258	      0.25874895	     28.21876755	      6.66917898	     -7.49999987	    -40.96938678	     -1.59477373	      1.60794381	     38.45869187	     -2.00341379	     63.03955933	     94.84538917	     83.85759108	     38.51532360	     -7.59951330	     65.70765913	    103.86889472	     81.63256522
      5.58333330	     25.06691712	      0.34187068	      7.63877496	      1.61499879	      0.99973213	     -0.07404211	      1.56468299	     -2.55728123	     -0.85371472	      0.64641122	      0.01128200	      0.44867295	     16.52199338	     -7.49999987	    -23.30607724	      1.27772046	     -2.72149734	     14.07687250	      0.24568777	     27.82991565	      6.61718176	     -7.49999987	    -40.36647998	     -0.59262907	      1.69054196	     38.20662035	     -2.15994095	     62.58263819	     94.92459985	     82.41891269	     37.97145164	     -7.68991615	     65.54527557	    104.17085901	     80.54090971
      5.60000000	     24.87596647	     -0.51991906	      7.81580872	      1.61555761	      0.99700809	     -0.07547273	      1.54765286	     -1.71754247	     -0.66053587	      0.86100802	      0.01502742	      0.63358101	     15.84996242	     -7.49999987	    -23.32574401	      0.39406699	     -2.67917912	     13.45692379	      0.23486763	     27.58971345	      6.72109347	     -7.49999987	    -39.77344031	      0.40747594	      1.43498313	     37.98256997	     -2.31053200	     62.10690744	     95.74946021	     87.35897940	     37.57583072	     -7.42287712	     64.32501962	    104.70318642	     87.75630892
      5.61666670	     24.72087259	     -1.33762742	      8.01477217	      1.61214597	      0.99652369	     -0.07372654	      1.58013332	     -0.88929661	     -0.51741606	      1.29285395	      0.02256456	      0.86517218	     15.35246275	     -7.49999987	    -23.15937140	     -0.48475519	     -2.66763503	     13.10239837	      0.22867999	     27.43077030	      6.64559511	     -7.49999987	    -39.42053282	      1.32016647	      1.34547988	     38.17531977	     -2.26916982	     61.78387006	     95.78642794	     87.23167435	     37.83698100	     -7.17665653	     63.78797688	    104.66638393	     87.67958799
      5.63333330	     24.72461376	     -1.99302918	      8.05378574	      1.61258573	      0.99656335	     -0.07462767	      1.63668006	     -0.25866373	     -0.12337855	      1.92579582	      0.03361148	      1.15740754	     14.79022258	     -7.49999987	    -23.16026632	     -1.14430963	     -2.72821730	     12.82416443	      0.22382389	     27.45486349	      6.70689852	     -7.49999987	    -39.20034305	      2.10890639	      1.09044346	     38.34923251	     -2.17541628	     61.85120358	     96.03694934	     86.28980702	     37.74766893	     -7.32404387	     63.14342461	    105.06037408	     88.48292795
      5.65000000	     24.61525031	     -2.58312880	      8.09453261	      1.61271697	      0.99648237	     -0.07544308	      1.77930435	      0.26612446	      0.25576289	      2.64630074	      0.04618666	      1.54891068	     14.27413594	     -7.49999987	    -23.01615256	     -1.73453834	     -2.80539038	     12.65152049	      0.22081069	     27.48497487	      6.72473968	     -7.49999987	    -38.90508672	      2.79236479	      0.90769304	     38.34450605	     -2.10831327	     62.14536360	     96.34608895	     84.31046520	     37.55285656	     -7.44542146	     62.98286315	    105.33456308	     86.42382416
